<svg width="21" height="22" viewBox="0 0 21 22" fill="none" xmlns="http://www.w3.org/2000/svg">
<path d="M0 10.6497C0 12.7264 0.615814 14.7564 1.76957 16.4831C2.92332 18.2099 4.5632 19.5557 6.48182 20.3504C8.40045 21.1451 10.5116 21.353 12.5484 20.9479C14.5852 20.5428 16.4562 19.5427 17.9246 18.0743C19.3931 16.6058 20.3931 14.7349 20.7982 12.6981C21.2034 10.6613 20.9955 8.55011 20.2007 6.63148C19.406 4.71286 18.0602 3.07298 16.3335 1.91923C14.6068 0.765473 12.5767 0.149658 10.5 0.149658C7.71523 0.149658 5.04451 1.2559 3.07538 3.22504C1.10625 5.19417 0 7.86489 0 10.6497ZM4.5 9.89966H13.6125L9.4275 5.69441L10.5 4.64966L16.5 10.6497L10.5 16.6497L9.4275 15.5794L13.6125 11.3997H4.5V9.89966Z" fill="#EBF3FC"/>
</svg>
