<svg width="28" height="31" viewBox="0 0 28 31" fill="none" xmlns="http://www.w3.org/2000/svg">
<g id="fi:bell" filter="url(#filter0_d_1_6518)">
<path id="Vector" d="M20 8C20 6.4087 19.3679 4.88258 18.2426 3.75736C17.1174 2.63214 15.5913 2 14 2C12.4087 2 10.8826 2.63214 9.75736 3.75736C8.63214 4.88258 8 6.4087 8 8C8 15 5 17 5 17H23C23 17 20 15 20 8Z" stroke="white" stroke-width="2" stroke-linecap="round" stroke-linejoin="round"/>
<path id="Vector_2" d="M15.73 21C15.5542 21.3031 15.3019 21.5547 14.9982 21.7295C14.6946 21.9044 14.3504 21.9965 14 21.9965C13.6496 21.9965 13.3054 21.9044 13.0018 21.7295C12.6982 21.5547 12.4458 21.3031 12.27 21" stroke="white" stroke-width="2" stroke-linecap="round" stroke-linejoin="round"/>
</g>
<defs>
<filter id="filter0_d_1_6518" x="-2" y="0" width="32" height="32" filterUnits="userSpaceOnUse" color-interpolation-filters="sRGB">
<feFlood flood-opacity="0" result="BackgroundImageFix"/>
<feColorMatrix in="SourceAlpha" type="matrix" values="0 0 0 0 0 0 0 0 0 0 0 0 0 0 0 0 0 0 127 0" result="hardAlpha"/>
<feOffset dy="4"/>
<feGaussianBlur stdDeviation="2"/>
<feComposite in2="hardAlpha" operator="out"/>
<feColorMatrix type="matrix" values="0 0 0 0 0 0 0 0 0 0 0 0 0 0 0 0 0 0 0.25 0"/>
<feBlend mode="normal" in2="BackgroundImageFix" result="effect1_dropShadow_1_6518"/>
<feBlend mode="normal" in="SourceGraphic" in2="effect1_dropShadow_1_6518" result="shape"/>
</filter>
</defs>
</svg>
