<svg width="21" height="21" viewBox="0 0 21 21" fill="none" xmlns="http://www.w3.org/2000/svg">
<path d="M18.7499 8.50023C18.7499 8.33608 18.7176 8.17354 18.6548 8.02188C18.592 7.87022 18.4999 7.73242 18.3838 7.61635C18.2677 7.50028 18.1299 7.4082 17.9783 7.34538C17.8266 7.28257 17.6641 7.25023 17.4999 7.25023C17.3358 7.25023 17.1732 7.28257 17.0216 7.34538C16.8699 7.4082 16.7321 7.50028 16.616 7.61635C16.5 7.73242 16.4079 7.87022 16.3451 8.02188C16.2823 8.17354 16.2499 8.33608 16.2499 8.50023H18.7499ZM4.74992 8.50023C4.74992 8.16871 4.61822 7.85077 4.3838 7.61635C4.14938 7.38193 3.83144 7.25023 3.49992 7.25023C3.1684 7.25023 2.85046 7.38193 2.61604 7.61635C2.38162 7.85077 2.24992 8.16871 2.24992 8.50023H4.74992ZM18.6159 11.3842C18.8504 11.6187 19.1684 11.7504 19.4999 11.7504C19.8315 11.7504 20.1495 11.6187 20.3839 11.3842C20.6184 11.1498 20.7501 10.8318 20.7501 10.5002C20.7501 10.1687 20.6184 9.85068 20.3839 9.61623L18.6159 11.3842ZM10.4999 1.50023L11.3839 0.616233C11.2678 0.500125 11.13 0.408021 10.9784 0.345182C10.8267 0.282343 10.6641 0.25 10.4999 0.25C10.3357 0.25 10.1732 0.282343 10.0215 0.345182C9.86981 0.408021 9.732 0.500125 9.61592 0.616233L10.4999 1.50023ZM0.615921 9.61623C0.381469 9.85068 0.249756 10.1687 0.249756 10.5002C0.249756 10.8318 0.381469 11.1498 0.615921 11.3842C0.850372 11.6187 1.16836 11.7504 1.49992 11.7504C1.83148 11.7504 2.14947 11.6187 2.38392 11.3842L0.615921 9.61623ZM5.49992 20.7502H15.4999V18.2502H5.49992V20.7502ZM18.7499 17.5002V8.50023H16.2499V17.5002H18.7499ZM4.74992 17.5002V8.50023H2.24992V17.5002H4.74992ZM20.3839 9.61623L11.3839 0.616233L9.61592 2.38423L18.6159 11.3842L20.3839 9.61623ZM9.61592 0.616233L0.615921 9.61623L2.38392 11.3842L11.3839 2.38423L9.61592 0.616233ZM15.4999 20.7502C16.3619 20.7502 17.1885 20.4078 17.798 19.7983C18.4075 19.1888 18.7499 18.3622 18.7499 17.5002H16.2499C16.2499 17.6991 16.1709 17.8899 16.0303 18.0306C15.8896 18.1712 15.6988 18.2502 15.4999 18.2502V20.7502ZM5.49992 18.2502C5.30101 18.2502 5.11024 18.1712 4.96959 18.0306C4.82894 17.8899 4.74992 17.6991 4.74992 17.5002H2.24992C2.24992 18.3622 2.59233 19.1888 3.20182 19.7983C3.81132 20.4078 4.63797 20.7502 5.49992 20.7502V18.2502Z" fill="white"/>
</svg>
