<svg width="391" height="400" viewBox="0 0 391 400" fill="none" xmlns="http://www.w3.org/2000/svg">
<path d="M76.9672 42.6797C45.3519 67.5523 21.4297 101.714 9.37891 141.112C172.262 248.422 181.264 386.629 181.73 398.321C186.536 398.769 191.414 399.02 196.309 399.11C215.838 165.429 112.205 68.5207 76.9672 42.6797Z" fill="#79197E"/>
<path d="M1.23726 185.908C0.878609 190.768 0.645508 195.664 0.645508 200.613C0.645508 301.574 84.4091 384.997 181.712 398.303C142.027 268.291 41.5141 207.194 1.23726 185.908Z" fill="#933093"/>
<path d="M314.593 42.6797C346.209 67.5523 370.131 101.714 382.182 141.112C219.299 248.422 210.297 386.629 209.831 398.321C205.025 398.769 200.147 399.02 195.251 399.11C175.74 165.429 279.356 68.5207 314.593 42.6797Z" fill="#933093"/>
<path d="M390.323 184.887C390.682 189.746 390.915 194.642 390.915 199.591C390.915 300.553 307.151 384.98 209.849 398.304C249.534 268.292 350.046 206.173 390.323 184.887Z" fill="#79197E"/>
<path d="M131.231 14.9021C163.528 24.1015 188.616 50.5882 195.771 83.674V0C172.62 0 150.724 5.36187 131.231 14.9021Z" fill="#FF9C00"/>
<path d="M195.789 0V83.674C202.944 50.5882 228.05 24.1015 260.329 14.9021C240.836 5.36187 218.94 0 195.789 0Z" fill="#F58600"/>
</svg>
