<svg width="12" height="12" viewBox="0 0 12 12" fill="none" xmlns="http://www.w3.org/2000/svg">
<g clip-path="url(#clip0_1_4100)">
<path d="M3.3335 1.7334H9.3335V2.25007H3.3335V1.7334Z" fill="#73CA5C"/>
<path d="M9.66664 2.66675H3.28664C3.20158 2.66554 3.11764 2.64712 3.03988 2.61259C2.96213 2.57806 2.89218 2.52815 2.83424 2.46585C2.7763 2.40355 2.73159 2.33017 2.70278 2.25012C2.67398 2.17007 2.66168 2.08501 2.66664 2.00008C2.66623 1.83107 2.73003 1.6682 2.84513 1.54444C2.96023 1.42067 3.11804 1.34525 3.28664 1.33341H9.66664C9.75505 1.33341 9.83983 1.2983 9.90235 1.23578C9.96486 1.17327 9.99998 1.08849 9.99998 1.00008C9.99998 0.911676 9.96486 0.826891 9.90235 0.764379C9.83983 0.701867 9.75505 0.666748 9.66664 0.666748H3.28664C2.94117 0.678847 2.6139 0.824646 2.37386 1.0734C2.13382 1.32214 1.99977 1.6544 1.99998 2.00008C1.99675 2.05448 1.99675 2.10902 1.99998 2.16341C1.99677 2.18998 1.99677 2.21684 1.99998 2.24341V10.0001C1.99977 10.3458 2.13382 10.678 2.37386 10.9268C2.6139 11.1755 2.94117 11.3213 3.28664 11.3334H9.66664C9.75505 11.3334 9.83983 11.2983 9.90235 11.2358C9.96486 11.1733 9.99998 11.0885 9.99998 11.0001V3.02341C10.0002 2.93273 9.96581 2.84537 9.90389 2.77912C9.84197 2.71286 9.75714 2.67268 9.66664 2.66675ZM9.33331 10.6667H3.28664C3.11804 10.6549 2.96023 10.5795 2.84513 10.4557C2.73003 10.332 2.66623 10.1691 2.66664 10.0001V3.18341C2.85617 3.28797 3.07028 3.33977 3.28664 3.33341H9.33331V10.6667Z" fill="#73CA5C"/>
</g>
<defs>
<clipPath id="clip0_1_4100">
<rect width="12" height="12" fill="white"/>
</clipPath>
</defs>
</svg>
