<svg width="17" height="17" viewBox="0 0 17 17" fill="none" xmlns="http://www.w3.org/2000/svg">
<g clip-path="url(#clip0_739_881)">
<path fill-rule="evenodd" clip-rule="evenodd" d="M0 0.833333C0 0.373096 0.373096 0 0.833333 0H15.8333C16.2936 0 16.6667 0.373096 16.6667 0.833333V2.98816C16.6667 3.43018 16.4911 3.85411 16.1785 4.16667L10.8333 9.51185V14.1667C10.8333 14.4823 10.655 14.7709 10.3727 14.912L7.03935 16.5787C6.78102 16.7079 6.47424 16.6941 6.22856 16.5422C5.98288 16.3904 5.83333 16.1221 5.83333 15.8333V9.51185L0.488155 4.16667C0.175594 3.85411 0 3.43018 0 2.98816V0.833333ZM1.66667 1.66667V2.98816L7.25592 8.57741C7.4122 8.73369 7.5 8.94565 7.5 9.16667V14.485L9.16667 13.6516V9.16667C9.16667 8.94565 9.25446 8.73369 9.41074 8.57741L15 2.98816V1.66667H1.66667Z" fill="#7805A1"/>
</g>
<defs>
<clipPath id="clip0_739_881">
<rect width="16.6667" height="16.6667" fill="white"/>
</clipPath>
</defs>
</svg>
