<svg width="18" height="18" viewBox="0 0 18 18" fill="none" xmlns="http://www.w3.org/2000/svg">
<path fill-rule="evenodd" clip-rule="evenodd" d="M7.03999 13.05V4.95L12.32 9L7.03999 13.05ZM8.8 0C3.93756 0 0 4.02705 0 9C0 13.9729 3.93756 18 8.8 18C13.6624 18 17.6 13.9729 17.6 9C17.6 4.02705 13.6624 0 8.8 0V0Z" fill="url(#paint0_linear_1_3138)"/>
<path fill-rule="evenodd" clip-rule="evenodd" d="M7.03999 13.05V4.95L12.32 9L7.03999 13.05ZM8.8 0C3.93756 0 0 4.02705 0 9C0 13.9729 3.93756 18 8.8 18C13.6624 18 17.6 13.9729 17.6 9C17.6 4.02705 13.6624 0 8.8 0V0Z" fill="black" fill-opacity="0.2"/>
<defs>
<linearGradient id="paint0_linear_1_3138" x1="-1.32462e-07" y1="9" x2="17.9999" y2="9.04912" gradientUnits="userSpaceOnUse">
<stop stop-color="#2E0775"/>
<stop offset="0.546875" stop-color="#5D1296" stop-opacity="0.934375"/>
<stop offset="1" stop-color="#7805A1" stop-opacity="0.88"/>
</linearGradient>
</defs>
</svg>
