<svg width="18" height="18" viewBox="0 0 18 18" fill="none" xmlns="http://www.w3.org/2000/svg">
<path fill-rule="evenodd" clip-rule="evenodd" d="M13.5812 4.18627C14.0307 4.50728 14.1347 5.13183 13.8137 5.58124L8.09945 13.5812C7.91174 13.844 7.60867 14 7.28571 14C6.96276 14 6.65969 13.844 6.47198 13.5812L4.18627 10.3812C3.86526 9.93183 3.96935 9.30728 4.41876 8.98627C4.86817 8.66526 5.49272 8.76935 5.81373 9.21876L7.28571 11.2795L12.1863 4.41876C12.5073 3.96935 13.1318 3.86526 13.5812 4.18627ZM8.8 0C3.93756 0 0 4.02705 0 9C0 13.9729 3.93756 18 8.8 18C13.6624 18 17.6 13.9729 17.6 9C17.6 4.02705 13.6624 0 8.8 0V0Z" fill="#73CA5C"/>
</svg>
