<svg width="12" height="8" viewBox="0 0 12 8" fill="none" xmlns="http://www.w3.org/2000/svg">
<path d="M6.4251 7.2751C6.29176 7.2751 6.16243 7.2501 6.0371 7.2001C5.91176 7.1501 5.80776 7.08343 5.7251 7.0001L1.1251 2.4001C0.941764 2.21676 0.850098 1.98343 0.850098 1.7001C0.850098 1.41676 0.941764 1.18343 1.1251 1.0001C1.30843 0.816764 1.54176 0.725098 1.8251 0.725098C2.10843 0.725098 2.34176 0.816764 2.5251 1.0001L6.4251 4.9001L10.3251 1.0001C10.5084 0.816764 10.7418 0.725098 11.0251 0.725098C11.3084 0.725098 11.5418 0.816764 11.7251 1.0001C11.9084 1.18343 12.0001 1.41676 12.0001 1.7001C12.0001 1.98343 11.9084 2.21676 11.7251 2.4001L7.1251 7.0001C7.0251 7.1001 6.91676 7.1711 6.8001 7.2131C6.68343 7.2551 6.55843 7.27576 6.4251 7.2751Z" fill="white"/>
</svg>
